HIERARCHY
ROOT root
{
	OFFSET	0	13.1	24.9
	CHANNELS 6  Xposition Yposition Zposition Xrotation Yrotation Zrotation
	JOINT spine_1
	{
		OFFSET	0	9.99999	0
		CHANNELS 3  Xrotation Yrotation Zrotation
		JOINT spine_2
		{
			OFFSET	0	112	-10
			CHANNELS 3  Xrotation Yrotation Zrotation
			JOINT spine_3
			{
				OFFSET	0	206.5	19.3
				CHANNELS 3  Xrotation Yrotation Zrotation
				JOINT spine_4
				{
					OFFSET	0	110.4	14.6
					CHANNELS 3  Xrotation Yrotation Zrotation
					JOINT neck_1
					{
						OFFSET	0	71.8	-50.3
						CHANNELS 3  Xrotation Yrotation Zrotation
						JOINT neck_2
						{
							OFFSET	0	86.2	-25.8
							CHANNELS 3  Xrotation Yrotation Zrotation
							JOINT head_ee
							{
								OFFSET	0	179.8	-8.7
								CHANNELS 3  Xrotation Yrotation Zrotation
								End Site
								{
									OFFSET	1	0	0
								}
							}
						}
					}
					JOINT left_clavicle
					{
						OFFSET	-43.2	22.4	-70.8
						CHANNELS 3  Xrotation Yrotation Zrotation
						JOINT left_shoulder
						{
							OFFSET	-93.9	-5.79999	48.7
							CHANNELS 3  Xrotation Yrotation Zrotation
							JOINT left_elbow
							{
								OFFSET	-291.4	-30.8	15.2
								CHANNELS 3  Xrotation Yrotation Zrotation
								JOINT left_lowarm_twist
								{
									OFFSET	-110.7	-3.89999	13.6
									CHANNELS 3  Xrotation Yrotation Zrotation
									JOINT left_hand
									{
										OFFSET	-110.7	-3.89999	13.6
										CHANNELS 3  Xrotation Yrotation Zrotation
										JOINT left_ee
										{
											OFFSET	-80.8	-5.10001	12.1
											CHANNELS 3  Xrotation Yrotation Zrotation
											End Site
											{
												OFFSET	1	0	0
											}
										}
									}
								}
							}
						}
					}
					JOINT right_clavicle
					{
						OFFSET	43.2	22.4	-70.8
						CHANNELS 3  Xrotation Yrotation Zrotation
						JOINT right_shoulder
						{
							OFFSET	93.9	-5.79999	48.7
							CHANNELS 3  Xrotation Yrotation Zrotation
							JOINT right_elbow
							{
								OFFSET	291.4	-30.8	15.2
								CHANNELS 3  Xrotation Yrotation Zrotation
								JOINT right_lowarm_twist
								{
									OFFSET	110.7	-3.89999	13.6
									CHANNELS 3  Xrotation Yrotation Zrotation
									JOINT right_hand
									{
										OFFSET	110.7	-3.89999	13.6
										CHANNELS 3  Xrotation Yrotation Zrotation
										JOINT right_ee
										{
											OFFSET	80.8	-5.10001	12.1
											CHANNELS 3  Xrotation Yrotation Zrotation
											End Site
											{
												OFFSET	1	0	0
											}
										}
									}
								}
							}
						}
					}
				}
			}
		}
	}
	JOINT left_hip
	{
		OFFSET	-82.8	-127.5	0.300001
		CHANNELS 3  Xrotation Yrotation Zrotation
		JOINT left_knee
		{
			OFFSET	-28.2	-396.7	2.2
			CHANNELS 3  Xrotation Yrotation Zrotation
			JOINT left_ankle
			{
				OFFSET	-11.7	-411.3	35.4
				CHANNELS 3  Xrotation Yrotation Zrotation
				JOINT left_toes
				{
					OFFSET	0	-60	-88.6
					CHANNELS 3  Xrotation Yrotation Zrotation
					JOINT left_foot_ee
					{
						OFFSET	-22.5	-16.5	-42.2
						CHANNELS 3  Xrotation Yrotation Zrotation
						End Site
						{
							OFFSET	1	0	0
						}
					}
				}
			}
		}
	}
	JOINT right_hip
	{
		OFFSET	82.8	-127.5	0.300001
		CHANNELS 3  Xrotation Yrotation Zrotation
		JOINT right_knee
		{
			OFFSET	28.2	-396.7	2.2
			CHANNELS 3  Xrotation Yrotation Zrotation
			JOINT right_ankle
			{
				OFFSET	11.7	-411.3	35.4
				CHANNELS 3  Xrotation Yrotation Zrotation
				JOINT right_toes
				{
					OFFSET	0	-60	-88.6
					CHANNELS 3  Xrotation Yrotation Zrotation
					JOINT right_foot_ee
					{
						OFFSET	22.5	-16.5	-42.2
						CHANNELS 3  Xrotation Yrotation Zrotation
						End Site
						{
							OFFSET	1	0	0
						}
					}
				}
			}
		}
	}
}
MOTION
Frames: 10
Frame Time: 0.02
402.776245962 723.948 -1238.07370366 126.029255438 -87.3048004206 136.86226698 -1.48593 -0.398412 -4.61823 -1.47407 -0.104057 -4.63418 -1.45569 0.989584 -4.52871 -1.4842 0.262743 -4.62791 -8.30102 0.793509 1.14591 -8.29752 0.677565 1.3087 -0.0 0.0 -0.0 6.39098 -28.2346 10.6573 2.00468 -29.9498 68.3285 0.700156 -19.1285 0.117974 7.66795 0.206381 -0.957024 -0.785967 1.71057 -4.508 -0.0 0.0 -0.0 -4.42151 -15.7378 5.19192 0.549663 16.449 -71.6255 1.22179 31.1826 -0.340941 45.6606 0.675956 5.64146 -2.66035 -25.3662 4.91988 0.0 0.0 0.0 -10.3609 -12.7124 -12.2155 5.32904 -0.255838 -0.777257 38.2156 26.6681 -5.04777 33.4905 -0.0 -0.0 -0.0 0.0 -0.0 8.54797 -26.75 -11.8182 -38.2349 0.358309 -5.74959 37.1875 7.60452 4.72451 -21.9391 0.0 0.0 0.0 0.0 0.0 
402.117457711 723.948 -1238.28643445 102.09019501 -87.7711634406 112.901919899 -1.48593 -0.398412 -4.61823 -1.47407 -0.104057 -4.63418 -1.45569 0.989584 -4.52871 -1.4842 0.262743 -4.62791 -8.30102 0.793509 1.14591 -8.29752 0.677565 1.3087 -0.0 0.0 -0.0 6.39098 -28.2346 10.6573 2.00468 -29.9498 68.3285 0.700156 -19.1285 0.117974 7.66795 0.206381 -0.957024 -0.785967 1.71057 -4.508 -0.0 0.0 -0.0 -4.42151 -15.7378 5.19192 0.549663 16.449 -71.6255 1.22179 31.1826 -0.340941 45.6606 0.675956 5.64146 -2.66035 -25.3662 4.91988 0.0 0.0 0.0 -10.3609 -12.7124 -12.2155 5.32904 -0.255838 -0.777257 38.2156 26.6681 -5.04777 33.4905 -0.0 -0.0 -0.0 0.0 -0.0 8.54797 -26.75 -11.8182 -38.2349 0.358309 -5.74959 37.1875 7.60452 4.72451 -21.9391 0.0 0.0 0.0 0.0 0.0 
401.71044489 723.948 -1238.41081195 84.2158478809 -87.8094669557 95.0144876735 -1.48593 -0.398412 -4.61823 -1.47407 -0.104057 -4.63418 -1.45569 0.989584 -4.52871 -1.4842 0.262743 -4.62791 -8.30102 0.793509 1.14591 -8.29752 0.677565 1.3087 -0.0 0.0 -0.0 6.39098 -28.2346 10.6573 2.00468 -29.9498 68.3285 0.700156 -19.1285 0.117974 7.66795 0.206381 -0.957024 -0.785967 1.71057 -4.508 -0.0 0.0 -0.0 -4.42151 -15.7378 5.19192 0.549663 16.449 -71.6255 1.22179 31.1826 -0.340941 45.6606 0.675956 5.64146 -2.66035 -25.3662 4.91988 0.0 0.0 0.0 -10.3609 -12.7124 -12.2155 5.32904 -0.255838 -0.777257 38.2156 26.6681 -5.04777 33.4905 -0.0 -0.0 -0.0 0.0 -0.0 8.54797 -26.75 -11.8182 -38.2349 0.358309 -5.74959 37.1875 7.60452 4.72451 -21.9391 0.0 0.0 0.0 0.0 0.0 
401.13363396 723.948 -1238.57798823 61.3451061893 -87.5162707778 72.125280919 -1.48593 -0.398412 -4.61823 -1.47407 -0.104057 -4.63418 -1.45569 0.989584 -4.52871 -1.4842 0.262743 -4.62791 -8.30102 0.793509 1.14591 -8.29752 0.677565 1.3087 -0.0 0.0 -0.0 6.39098 -28.2346 10.6573 2.00468 -29.9498 68.3285 0.700156 -19.1285 0.117974 7.66795 0.206381 -0.957024 -0.785967 1.71057 -4.508 -0.0 0.0 -0.0 -4.42151 -15.7378 5.19192 0.549663 16.449 -71.6255 1.22179 31.1826 -0.340941 45.6606 0.675956 5.64146 -2.66035 -25.3662 4.91988 0.0 0.0 0.0 -10.3609 -12.7124 -12.2155 5.32904 -0.255838 -0.777257 38.2156 26.6681 -5.04777 33.4905 -0.0 -0.0 -0.0 0.0 -0.0 8.54797 -26.75 -11.8182 -38.2349 0.358309 -5.74959 37.1875 7.60452 4.72451 -21.9391 0.0 0.0 0.0 0.0 0.0 
410.073702794 716.883 -1245.52295587 86.2796777811 -87.7716980598 97.3097279547 -1.36528 -0.478679 -4.56108 -1.35373 -0.187787 -4.58223 -1.32907 0.885723 -4.49991 -1.35728 0.164711 -4.58312 -8.50762 -0.219605 1.58107 -8.50049 -1.5168 1.51076 -0.0 0.0 -0.0 6.58014 -28.3859 11.0537 2.07766 -29.9374 66.3105 0.807721 -21.8073 0.155598 7.23526 0.198162 -0.902363 -0.646947 2.25826 -3.34435 -0.0 0.0 -0.0 -3.94185 -16.3617 4.28291 -2.61387 15.7621 -70.5026 1.23185 31.3911 -0.346166 45.3626 0.65717 5.60826 -2.69679 -25.3577 5.1296 0.0 0.0 0.0 -10.6209 -13.5076 -12.0413 6.28044 -0.309084 -0.913413 39.3181 26.9125 -5.16679 33.694 -0.0 -0.0 -0.0 0.0 -0.0 10.1688 -26.7794 -10.7376 -41.9586 0.596053 -6.27027 38.1188 7.66703 4.811 -21.5587 0.0 0.0 0.0 0.0 0.0 
432.506425258 719.331 -1258.37667019 82.371398798 -87.683079978 94.1970101791 -1.12243 -0.961589 -4.86392 -1.10951 -0.650521 -4.91508 -1.04224 0.48725 -4.9339 -1.07607 -0.297098 -4.94895 -8.30368 -0.454045 2.79692 -8.28118 -2.81403 2.66464 -0.0 0.0 -0.0 6.83582 -29.0378 11.5394 3.43489 -30.179 65.068 0.975956 -25.8014 0.223542 6.70284 0.187482 -0.835191 -0.546822 4.21005 -1.83871 -0.0 0.0 -0.0 -4.3093 -17.9961 4.48975 -8.57545 14.3763 -69.3118 1.36099 33.9858 -0.41593 44.324 0.593066 5.49185 -2.88922 -25.907 5.91392 0.0 0.0 0.0 -11.9196 -14.3984 -11.9267 5.479 -0.26408 -0.798775 41.361 25.4746 -5.31294 34.2973 -0.0 -0.0 -0.0 0.0 -0.0 10.7153 -26.2355 -11.2624 -47.1681 0.984572 -6.97097 39.2027 9.52075 4.9462 -20.2154 0.0 0.0 0.0 0.0 0.0 
449.030145345 717.295 -1272.65146835 20.3955569923 -81.8437888803 32.5826640755 -1.04909 -1.38294 -5.36269 -1.03369 -1.03941 -5.43951 -0.920525 0.215001 -5.53347 -0.96262 -0.660257 -5.49825 -10.4915 -0.291717 4.90581 -10.427 -3.83086 4.69429 -0.0 0.0 -0.0 7.42794 -29.6958 12.7589 6.1541 -29.5378 63.3901 1.41257 -34.9802 0.445133 5.14955 0.152761 -0.639814 -0.59866 7.8784 -0.601909 -0.0 0.0 -0.0 -4.37697 -18.7719 4.41237 -14.2675 13.362 -68.8147 1.3448 33.6689 -0.406919 44.3353 0.593752 5.49312 -3.08558 -24.8098 7.63325 0.0 0.0 0.0 -13.7485 -15.1283 -11.9958 6.05906 -0.296492 -0.881809 40.4391 23.2817 -5.15618 38.2606 -0.0 -0.0 -0.0 0.0 -0.0 20.0342 -25.9796 -6.38996 -47.964 1.04951 -7.07486 32.3731 14.4956 4.4104 -15.9385 0.0 0.0 0.0 0.0 0.0 
461.178500772 719.409 -1286.61700406 12.6853758117 -77.7778707743 24.7630323107 -0.678895 -1.29948 -5.51075 -0.662507 -0.946742 -5.58196 -0.55712 0.301993 -5.65339 -0.601202 -0.593196 -5.63036 -11.7558 1.18338 4.9806 -11.686 -0.98794 5.12288 -0.0 0.0 -0.0 8.01225 -29.1309 14.1068 6.81052 -26.8173 62.4642 1.92308 -43.6059 0.769353 4.6866 0.141389 -0.58177 -0.170635 8.93492 2.60857 -0.0 0.0 -0.0 -4.2686 -18.8458 4.22987 -17.5469 12.9724 -68.8868 1.22735 31.2982 -0.343829 44.5368 0.606026 5.51579 -2.36717 -20.7794 5.6156 0.0 0.0 0.0 -14.8818 -14.6723 -11.4255 5.7872 -0.281196 -0.842932 41.2222 22.5744 -5.2081 38.6594 -0.0 -0.0 -0.0 0.0 -0.0 21.6138 -25.6187 -5.17307 -38.6644 0.383991 -5.81041 27.0866 25.0552 4.18151 -14.8138 0.0 0.0 0.0 0.0 0.0 
467.126197097 717.676 -1292.73345754 12.0815696065 -75.7866426659 23.6152158065 -0.56681 -1.21415 -5.43735 -0.550788 -0.866234 -5.50332 -0.455481 0.353709 -5.55966 -0.4982 -0.527391 -5.54592 -10.8299 1.35726 5.01324 -10.7589 -0.763374 5.21323 -0.0 0.0 -0.0 8.41415 -29.0579 14.9997 7.36201 -25.0748 61.8521 2.0196 -45.0077 0.836777 4.34332 0.132654 -0.538789 -0.081121 9.70298 3.50048 -0.0 0.0 -0.0 -4.50218 -19.4933 4.43092 -19.2808 12.4707 -69.0867 1.25016 31.7683 -0.355757 44.529 0.605551 5.51491 -1.98974 -17.8098 4.83392 0.0 0.0 0.0 -15.8706 -14.8868 -10.6718 5.03265 -0.239713 -0.734665 42.2772 22.9484 -5.31477 38.665 -0.0 -0.0 -0.0 0.0 -0.0 21.8669 -25.6615 -5.05822 -32.6101 0.0647233 -4.93716 23.39 27.3658 3.79408 -14.8845 0.0 0.0 0.0 0.0 0.0 
473.557421716 712.916 -1306.39829279 8.08838895662 -72.783841996 18.2240434286 -0.265528 -1.2046 -5.00863 -0.252011 -0.883867 -5.0749 -0.164431 0.216636 -5.14655 -0.200876 -0.597796 -5.11638 -11.0624 1.12982 6.23185 -10.9535 -1.97777 6.33101 -0.0 0.0 -0.0 8.92681 -28.9816 16.14 8.68466 -22.5639 60.6649 2.38143 -49.7053 1.10316 2.74994 0.0887408 -0.339995 0.169973 9.1437 4.89196 -0.0 0.0 -0.0 -4.76981 -19.8067 4.75693 -21.3258 12.4695 -68.7672 1.29601 32.6991 -0.38021 46.2262 0.712078 5.70418 -1.36838 -15.6292 2.05874 0.0 0.0 0.0 -15.6761 -13.8987 -8.06075 6.22062 -0.305669 -0.904879 42.2842 23.8989 -5.34513 38.3177 -0.0 -0.0 -0.0 0.0 -0.0 20.5918 -25.6187 -5.49445 -17.8789 -0.314855 -2.71449 18.4531 29.7651 3.17486 -15.2297 0.0 0.0 0.0 0.0 0.0 
